# xmcd
#
# Track frame offsets: 
#        150
#        26320
#        53222
#        81233
#        111233
#        146250
#        181927
#        224644
#        254452
#        311681
#
# Disc length: 4682 seconds
#
# Revision: 1
# Processed by: cddbd v1.5.2PL0 Copyright (c) Steve Scherf et al.
# Submitted via: ExactAudioCopy v0.99pb4
#
DISCID=8b12480a
DTITLE=Soulive - Soulive
DYEAR=1900
DGENRE=Jazz
TTITLE0=Aladdin
TTITLE1=El Ron
TTITLE2=Solid
TTITLE3=First Street
TTITLE4=Shaheed
TTITLE5=Dig
TTITLE6=One In Seven
TTITLE7=Lenny
TTITLE8=Turn It Out
TTITLE9=Cash's Dream
EXTD=
EXTT0=
EXTT1=
EXTT2=
EXTT3=
EXTT4=
EXTT5=
EXTT6=
EXTT7=
EXTT8=
EXTT9=
PLAYORDER=
